<svg xmlns="http://www.w3.org/2000/svg" viewBox="0 0 288.33 104.9"><defs><style>.a{fill:#ffffff;}</style></defs><title>kuraseru</title><path class="a" d="M28.41,96.9,19.3,85.81l8.64-8.63a4.07,4.07,0,0,0-5.75-5.76l-10.4,10.4V58.51a4.58,4.58,0,1,0-9.15,0V99.83a4.58,4.58,0,1,0,9.15,0V93.3a1.71,1.71,0,0,0,.2-.18l.81-.81,8.54,10.4a4.58,4.58,0,0,0,7.07-5.81"/><path class="a" d="M66.54,74a3.82,3.82,0,1,0-7.63,0s0,19.36,0,19.56c0,1.78-1.25,4.47-5,4.47-4.74,0-5.35-2.94-5.43-5,0-.24,0-18.3,0-18.3a4.58,4.58,0,1,0-9.15,0s0,18.69,0,18.84a10.69,10.69,0,0,0,4.29,8.36,15,15,0,0,0,9.2,3,15.71,15.71,0,0,0,9.19-3,10.4,10.4,0,0,0,4.45-7.68c0-.23.07-20.24.07-20.24"/><path class="a" d="M283.56,74a3.81,3.81,0,1,0-7.62,0s0,19.36,0,19.56c0,1.78-1.26,4.47-5,4.47-4.74,0-5.35-2.94-5.44-5,0-.24,0-18.3,0-18.3a4.58,4.58,0,1,0-9.15,0s0,18.69,0,18.84a10.7,10.7,0,0,0,4.3,8.36,15,15,0,0,0,9.19,3,15.72,15.72,0,0,0,9.2-3,10.4,10.4,0,0,0,4.45-7.68c0-.23.06-20.24.06-20.24"/><path class="a" d="M104.52,97.46l-6-8.46a9.84,9.84,0,0,0,5.82-8.88A9.68,9.68,0,0,0,95,70.49H83.87a3.32,3.32,0,0,0-1,.14l-.36,0A4.58,4.58,0,0,0,78,75.19V99.83a4.58,4.58,0,1,0,9.15,0V77.1h5.2a2.94,2.94,0,0,1,2.69,3,4,4,0,0,1-3.43,4.27h0a4.14,4.14,0,0,0-1.25.61,4.32,4.32,0,0,0-1,6l8.15,11.44a4.32,4.32,0,0,0,7-5"/><path class="a" d="M246.21,97.46l-6-8.46A9.84,9.84,0,0,0,246,80.12a9.67,9.67,0,0,0-9.29-9.63H225.56a3.31,3.31,0,0,0-.95.14l-.37,0a4.58,4.58,0,0,0-4.57,4.58V99.83a4.58,4.58,0,1,0,9.15,0V77.1H234a2.93,2.93,0,0,1,2.68,3,4,4,0,0,1-3.43,4.27h0A4.21,4.21,0,0,0,232,85a4.33,4.33,0,0,0-1,6l8.15,11.44a4.32,4.32,0,0,0,7-5"/><path class="a" d="M143.9,98.37,132.84,72.12a4.32,4.32,0,0,0-5.66-2.3,4.19,4.19,0,0,0-1.92,1.59,3.16,3.16,0,0,0-.72,1.06L113.2,99.74a3.3,3.3,0,1,0,6.1,2.53l1.82-4.36h13.21l1.61,3.82a4.32,4.32,0,1,0,8-3.36m-20.25-6.56,4-9.67,4.08,9.67Z"/><path class="a" d="M164.4,82l-1.81-.87a2.27,2.27,0,0,1-.8-1.8,2.36,2.36,0,0,1,1.07-2.1,2.33,2.33,0,0,1,1.37-.33h7.88a3.21,3.21,0,0,0,3-3.23,3.05,3.05,0,0,0-3-3.06h-10.7a7.29,7.29,0,0,0-3.58,1l-.3.18c-2.88,1.88-4.89,5.47-4.92,8.25-.07,6.74,4.62,8.92,11.72,12.23l.9.49c1.29.79,1.74,1.37,1.7,2.18a2.56,2.56,0,0,1-1.13,2.23,3.49,3.49,0,0,1-1.59.6h-8.75a3.05,3.05,0,1,0,0,6.1H166a10.23,10.23,0,0,0,4.48-1.18,3.8,3.8,0,0,0,.78-.27c2.85-1.39,4.87-5.46,4.9-8.24.08-6.74-4.61-8.92-11.71-12.23"/><path class="a" d="M206.71,90a3.06,3.06,0,0,0,3-3,3.12,3.12,0,0,0-3.13-3.11H196.29a1,1,0,0,1-1-1v-4a2.15,2.15,0,0,1,1.93-2.13h9.43a3.12,3.12,0,0,0,3.13-3.11,3.06,3.06,0,0,0-3-3H193.79a7.1,7.1,0,0,0-7.44,7.4V97.1a6.49,6.49,0,0,0,2.38,5.18,8.46,8.46,0,0,0,5.42,1.7h12.48a3.12,3.12,0,0,0,3.13-3.11,3.06,3.06,0,0,0-3-3h-9.53a2.15,2.15,0,0,1-1.91-2.13V91a1,1,0,0,1,1-1Z"/><path class="a" d="M132.91,47.18A3.06,3.06,0,0,1,130,45L124.7,28l-3.24,5.24a3.07,3.07,0,0,1-2.59,1.44H3.05a3.05,3.05,0,0,1,0-6.1H117.17L123,19.12a3.05,3.05,0,0,1,5.51.71l3.55,11.41,5.09-28.72a3.05,3.05,0,0,1,3-2.52h0a3.05,3.05,0,0,1,3,2.51l5.27,29.39,2.24-6.15a3.05,3.05,0,0,1,5-1.15l4.64,4.52H285.28a3,3,0,1,1,0,6.1H159.09a3.06,3.06,0,0,1-2.12-.86l-2.15-2.09-4.48,12.38a3.06,3.06,0,0,1-5.88-.5l-4.25-23.73-4.3,24.24a3,3,0,0,1-2.81,2.51h-.19"/></svg>